{"glyphs":{"0":{"ha":894,"x_min":42,"x_max":853,"o":"m 447 965 q 647 921 568 965 q 771 806 725 876 q 835 649 817 736 q 853 479 853 563 q 835 308 853 394 q 771 152 817 222 q 647 38 725 82 q 447 -7 568 -7 q 247 38 325 -7 q 122 152 168 82 q 59 308 76 222 q 42 479 42 394 q 59 649 42 563 q 122 806 76 736 q 247 921 168 876 q 447 965 325 965 m 447 129 q 575 163 526 129 q 651 248 624 196 q 687 362 678 300 q 696 479 696 424 q 687 597 696 536 q 651 710 678 658 q 575 794 624 761 q 447 828 526 828 q 319 794 368 828 q 242 710 269 761 q 206 597 215 658 q 197 479 197 536 q 206 362 197 424 q 242 248 215 300 q 319 163 269 196 q 447 129 368 129 z "},"1":{"ha":374,"x_min":28,"x_max":304,"o":"m 304 953 l 304 6 l 154 6 l 154 815 l 28 815 l 28 953 l 304 953 z "},"2":{"ha":785,"x_min":49,"x_max":736,"o":"m 207 142 l 736 142 l 736 6 l 49 6 l 49 142 q 64 244 49 190 q 117 351 79 299 q 219 451 156 404 q 381 529 283 497 q 490 575 450 551 q 549 622 529 599 q 574 665 569 644 q 579 701 579 686 q 572 742 579 721 q 543 783 564 764 q 484 815 522 803 q 383 828 446 828 q 273 817 325 828 q 182 792 221 806 q 119 764 143 778 q 93 746 96 750 l 93 897 q 147 924 114 911 q 219 945 181 936 q 301 960 258 954 q 385 965 344 965 q 523 949 465 965 q 619 908 581 933 q 681 851 658 882 q 717 792 704 821 q 733 738 729 763 q 736 701 736 714 q 722 613 736 656 q 672 533 707 571 q 576 460 636 494 q 424 396 515 425 q 299 331 343 369 q 234 256 254 292 q 210 192 214 219 q 207 158 207 164 l 207 142 z "},"3":{"ha":768,"x_min":49,"x_max":718,"o":"m 692 703 q 656 576 692 632 q 553 496 619 521 q 679 407 640 468 q 718 264 718 346 q 685 138 718 189 q 599 53 651 86 q 481 7 546 21 q 351 -7 415 -7 q 178 17 260 -7 q 49 74 96 42 l 49 229 q 136 181 89 201 q 233 146 178 161 q 351 131 288 131 q 422 136 385 131 q 490 158 458 142 q 542 204 521 175 q 563 279 563 233 q 540 356 563 326 q 474 401 518 385 q 363 424 429 418 q 210 429 297 429 l 210 547 q 349 552 289 547 q 451 572 410 557 q 513 616 492 588 q 535 690 535 644 q 526 743 535 718 q 494 787 517 768 q 435 817 472 806 q 339 828 397 828 q 233 817 281 828 q 151 792 185 806 q 97 764 117 778 q 74 746 76 750 l 74 897 q 188 945 117 925 q 340 965 258 965 q 525 938 456 965 q 631 872 594 911 q 680 786 668 832 q 692 703 692 740 z "},"4":{"ha":801,"x_min":35,"x_max":760,"o":"m 760 344 l 760 207 l 683 207 l 683 6 l 535 6 l 535 207 l 35 207 l 35 324 l 513 953 l 683 953 l 683 344 l 760 344 m 535 753 l 225 344 l 535 344 l 535 753 z "},"5":{"ha":775,"x_min":56,"x_max":725,"o":"m 358 593 q 541 564 469 593 q 653 490 613 535 q 710 392 694 444 q 725 292 725 339 q 631 67 725 142 q 358 -7 538 -7 q 185 17 267 -7 q 56 74 103 42 l 56 229 q 147 181 99 201 q 240 146 188 161 q 346 131 293 131 q 421 137 382 131 q 493 160 460 143 q 548 209 526 178 q 569 292 569 240 q 563 346 569 317 q 531 400 556 375 q 458 442 506 425 q 326 458 410 458 q 219 454 268 458 q 133 443 169 450 q 56 428 90 436 l 106 953 l 681 953 l 681 815 l 242 815 l 221 588 q 283 592 249 590 q 358 593 318 593 z "},"6":{"ha":847,"x_min":42,"x_max":799,"o":"m 199 517 q 305 597 240 561 q 454 633 369 633 q 600 610 536 633 q 708 544 664 586 q 776 444 753 501 q 799 318 799 386 q 771 185 799 244 q 695 82 743 125 q 583 16 647 39 q 444 -7 518 -7 q 246 38 324 -7 q 123 152 168 82 q 60 308 78 222 q 42 479 42 394 q 59 649 42 563 q 122 805 76 735 q 249 920 168 875 q 454 965 329 965 q 614 948 542 965 q 729 911 686 931 l 729 761 q 688 782 713 771 q 630 803 663 793 q 557 821 597 814 q 471 828 517 828 q 328 799 382 828 q 247 726 275 771 q 209 625 218 681 q 199 517 200 569 m 444 129 q 589 181 536 129 q 642 318 642 232 q 586 451 642 406 q 444 497 531 497 q 366 487 401 497 q 301 459 331 476 q 249 420 272 442 q 206 375 225 399 q 231 285 214 329 q 275 206 247 240 q 344 150 303 171 q 444 129 386 129 z "},"7":{"ha":760,"x_min":28,"x_max":732,"o":"m 732 953 l 732 840 l 300 6 l 131 6 l 557 815 l 28 815 l 28 953 l 732 953 z "},"8":{"ha":858,"x_min":49,"x_max":810,"o":"m 603 506 q 682 474 644 493 q 748 425 719 454 q 793 357 776 396 q 810 267 810 318 q 779 146 810 197 q 697 60 749 94 q 576 10 644 26 q 429 -7 507 -7 q 290 10 358 -7 q 169 60 222 26 q 82 146 115 94 q 49 267 49 197 q 65 358 49 319 q 110 426 82 397 q 174 475 138 456 q 253 506 211 494 q 194 533 222 517 q 145 574 167 550 q 111 629 124 597 q 99 703 99 661 q 131 828 99 778 q 214 909 164 879 q 322 952 264 939 q 429 965 379 965 q 539 952 481 965 q 646 909 597 939 q 727 828 694 879 q 760 703 760 778 q 747 628 760 661 q 712 572 733 596 q 662 533 690 549 q 603 506 633 517 m 429 828 q 304 799 354 828 q 254 703 254 769 q 299 602 254 638 q 429 567 344 567 q 559 602 514 567 q 604 703 604 638 q 554 799 604 769 q 429 828 504 828 m 429 129 q 511 139 471 129 q 583 169 551 149 q 633 219 614 189 q 653 292 653 250 q 633 363 653 333 q 583 412 614 393 q 511 440 551 431 q 429 449 471 449 q 347 440 388 449 q 274 412 306 431 q 224 363 243 393 q 204 292 204 333 q 224 219 204 250 q 274 168 243 188 q 347 139 306 149 q 429 129 388 129 z "},"9":{"ha":849,"x_min":50,"x_max":807,"o":"m 50 639 q 78 773 50 713 q 153 876 106 833 q 266 942 201 918 q 404 965 331 965 q 603 921 525 965 q 726 806 681 876 q 789 649 771 736 q 807 479 807 563 q 790 310 807 396 q 726 153 772 224 q 599 38 679 82 q 393 -7 518 -7 q 234 10 306 -7 q 119 47 163 28 l 119 196 q 218 153 151 176 q 378 131 285 131 q 520 159 467 131 q 602 233 574 188 q 640 333 631 278 q 650 440 649 388 q 544 360 608 396 q 394 325 481 325 q 248 349 313 325 q 140 414 183 372 q 73 513 96 456 q 50 639 50 571 m 404 461 q 482 472 447 461 q 546 499 517 482 q 599 539 575 517 q 642 583 622 561 q 617 674 633 629 q 572 752 600 718 q 503 807 544 786 q 404 828 461 828 q 258 777 311 828 q 206 639 206 726 q 261 507 206 553 q 404 461 317 461 z "},"\u0000":{"ha":0,"x_min":0,"x_max":0,"o":""},"\r":{"ha":0,"x_min":0,"x_max":0,"o":""}," ":{"ha":417,"x_min":0,"x_max":0,"o":""},"\n":{"ha":0,"x_min":0,"x_max":0,"o":""},"!":{"ha":301,"x_min":69,"x_max":232,"o":"m 101 229 l 78 629 l 78 953 l 224 953 l 224 629 l 201 229 l 101 229 m 69 6 l 69 154 l 232 154 l 232 6 l 69 6 z "},"\"":{"ha":518,"x_min":42,"x_max":476,"o":"m 42 1028 l 222 1028 l 193 703 l 69 703 l 42 1028 m 476 1028 l 449 703 l 324 703 l 296 1028 l 476 1028 z "},"#":{"ha":1040,"x_min":42,"x_max":999,"o":"m 793 579 l 758 379 l 939 379 l 914 242 l 733 242 l 692 6 l 542 6 l 585 242 l 372 242 l 331 6 l 181 6 l 222 242 l 42 242 l 67 379 l 247 379 l 283 579 l 101 579 l 125 715 l 307 715 l 349 953 l 499 953 l 457 715 l 668 715 l 710 953 l 860 953 l 818 715 l 999 715 l 974 579 l 793 579 m 643 579 l 432 579 l 397 379 l 608 379 l 643 579 z "},"$":{"ha":714,"x_min":42,"x_max":672,"o":"m 415 536 q 615 442 557 504 q 672 301 672 379 q 648 197 672 238 q 588 131 624 156 q 510 97 551 107 q 432 82 468 86 l 432 -69 l 282 -69 l 282 85 q 165 109 222 92 q 53 160 108 126 l 53 317 q 102 283 69 300 q 177 251 135 265 q 269 226 219 236 q 367 217 318 217 q 398 217 374 217 q 449 225 422 218 q 497 248 475 232 q 518 296 518 264 q 505 344 518 325 q 468 375 492 363 q 410 397 444 388 q 336 414 376 406 q 192 460 249 432 q 101 520 135 488 q 55 588 68 553 q 42 658 42 624 q 50 716 42 683 q 84 781 58 749 q 157 838 110 813 q 282 874 204 864 l 282 1028 l 432 1028 l 432 872 q 535 848 483 865 q 626 807 586 831 l 626 658 q 558 700 597 682 q 478 728 525 715 q 369 740 431 740 q 243 723 292 740 q 194 658 194 706 q 251 589 194 618 q 415 536 307 560 z "},"%":{"ha":1164,"x_min":42,"x_max":1121,"o":"m 869 953 l 443 6 l 293 6 l 719 953 l 869 953 m 472 667 q 463 571 472 617 q 428 491 453 525 q 363 437 404 457 q 256 417 321 417 q 149 436 190 417 q 83 490 107 456 q 51 569 60 524 q 42 667 42 615 q 51 761 42 717 q 83 840 60 806 q 149 895 107 875 q 256 915 190 915 q 363 895 321 915 q 428 841 404 875 q 463 762 453 807 q 472 667 472 717 m 256 521 q 322 544 300 521 q 353 601 344 568 q 361 667 361 633 q 357 715 361 690 q 342 762 353 740 q 310 797 331 783 q 256 811 289 811 q 202 797 222 811 q 171 762 182 783 q 156 715 160 740 q 153 667 153 690 q 156 617 153 643 q 171 570 160 592 q 202 535 182 549 q 256 521 222 521 m 904 542 q 1011 522 969 542 q 1077 467 1053 501 q 1111 387 1101 432 q 1121 292 1121 342 q 1111 197 1121 242 q 1077 117 1101 151 q 1011 63 1053 83 q 904 43 969 43 q 797 63 839 43 q 732 116 756 82 q 699 195 708 150 q 690 292 690 240 q 699 387 690 342 q 732 467 708 432 q 797 522 756 501 q 904 542 839 542 m 904 146 q 971 169 949 146 q 1001 226 993 193 q 1010 292 1010 258 q 1002 358 1010 324 q 971 415 994 392 q 904 438 947 438 q 851 424 871 438 q 819 388 831 410 q 805 341 808 367 q 801 292 801 315 q 805 242 801 268 q 819 195 808 217 q 851 160 831 174 q 904 146 871 146 z "},"&":{"ha":874,"x_min":49,"x_max":818,"o":"m 818 547 l 818 429 l 768 429 l 768 6 l 618 6 l 618 36 q 531 6 581 18 q 415 -7 482 -7 q 286 7 351 -7 q 168 53 221 21 q 82 138 115 86 q 49 264 49 189 q 88 407 49 346 q 214 496 126 468 q 111 576 147 521 q 75 703 75 632 q 87 786 75 740 q 135 872 99 832 q 242 938 172 911 q 426 965 311 965 q 579 945 508 965 q 693 897 650 925 l 693 746 q 670 764 690 750 q 616 792 650 778 q 534 817 582 806 q 428 828 486 828 q 333 817 371 828 q 272 787 294 806 q 241 743 250 768 q 232 690 232 718 q 251 618 232 646 q 310 574 271 590 q 405 553 349 558 q 535 547 461 547 l 818 547 m 618 429 l 533 429 q 391 422 453 429 q 288 399 329 415 q 225 353 246 382 q 204 279 204 325 q 225 203 204 232 q 277 158 246 174 q 346 136 308 142 q 415 131 383 131 q 532 147 482 131 q 618 186 582 163 l 618 429 z "},"'":{"ha":264,"x_min":42,"x_max":222,"o":"m 222 1028 l 193 703 l 69 703 l 42 1028 l 222 1028 z "},"(":{"ha":425,"x_min":42,"x_max":397,"o":"m 397 915 q 309 894 344 915 q 251 839 274 874 q 218 760 229 804 q 202 668 207 715 q 197 575 197 621 q 197 492 197 529 q 197 408 197 454 q 202 315 197 363 q 218 224 207 268 q 251 144 229 179 q 309 89 274 110 q 397 68 344 68 l 397 -19 q 226 28 294 -19 q 116 151 157 76 q 58 317 75 226 q 42 492 42 407 q 58 665 42 575 q 116 831 75 756 q 226 954 157 906 q 397 1003 294 1003 l 397 915 z "},")":{"ha":425,"x_min":28,"x_max":383,"o":"m 28 1003 q 199 954 131 1003 q 309 831 268 906 q 367 665 350 756 q 383 492 383 575 q 367 317 383 407 q 309 151 350 226 q 199 28 268 76 q 28 -19 131 -19 l 28 68 q 116 89 81 68 q 174 144 151 110 q 207 224 196 179 q 223 315 218 268 q 228 408 228 363 q 228 492 228 454 q 228 575 228 529 q 223 668 228 621 q 207 760 218 715 q 174 839 196 804 q 116 894 151 874 q 28 915 81 915 l 28 1003 z "},"*":{"ha":524,"x_min":42,"x_max":482,"o":"m 338 713 l 426 590 l 350 535 l 261 657 l 172 535 l 97 590 l 186 713 l 42 758 l 71 849 l 215 801 l 215 953 l 308 953 l 308 801 l 453 849 l 482 758 l 338 713 z "},"+":{"ha":825,"x_min":28,"x_max":797,"o":"m 797 549 l 797 411 l 481 411 l 481 94 l 344 94 l 344 411 l 28 411 l 28 549 l 344 549 l 344 864 l 481 864 l 481 549 l 797 549 z "},",":{"ha":288,"x_min":49,"x_max":238,"o":"m 238 179 l 238 6 l 169 -119 l 94 -119 l 131 6 l 49 6 l 49 179 l 238 179 z "},"-":{"ha":728,"x_min":35,"x_max":693,"o":"m 35 410 l 35 547 l 693 547 l 693 410 l 35 410 z "},".":{"ha":288,"x_min":49,"x_max":238,"o":"m 49 6 l 49 179 l 238 179 l 238 6 l 49 6 z "},"/":{"ha":592,"x_min":7,"x_max":583,"o":"m 583 953 l 157 6 l 7 6 l 433 953 l 583 953 z "},":":{"ha":301,"x_min":56,"x_max":244,"o":"m 56 549 l 56 722 l 244 722 l 244 549 l 56 549 m 56 6 l 56 179 l 244 179 l 244 6 l 56 6 z "},";":{"ha":303,"x_min":57,"x_max":246,"o":"m 57 549 l 57 722 l 246 722 l 246 549 l 57 549 m 57 179 l 246 179 l 246 6 l 178 -119 l 103 -119 l 139 6 l 57 6 l 57 179 z "},"<":{"ha":426,"x_min":14,"x_max":399,"o":"m 153 482 l 399 236 l 260 236 l 14 482 l 260 728 l 399 728 l 153 482 z "},"=":{"ha":867,"x_min":49,"x_max":818,"o":"m 49 586 l 49 724 l 818 724 l 818 586 l 49 586 m 49 247 l 49 385 l 818 385 l 818 247 l 49 247 z "},">":{"ha":426,"x_min":28,"x_max":413,"o":"m 413 482 l 167 236 l 28 236 l 274 482 l 28 728 l 167 728 l 413 482 z "},"?":{"ha":713,"x_min":28,"x_max":671,"o":"m 319 965 q 504 936 435 965 q 610 865 574 907 q 659 776 647 824 q 671 690 671 728 q 621 527 671 599 q 444 414 571 456 q 376 376 400 399 q 351 317 351 354 l 351 229 l 203 229 l 203 329 q 213 388 203 357 q 247 449 224 419 q 308 503 271 478 q 401 547 346 529 q 466 579 443 561 q 499 617 489 597 q 512 656 510 636 q 514 690 514 675 q 506 738 514 714 q 478 783 499 763 q 419 815 457 803 q 318 828 381 828 q 208 817 260 828 q 117 792 156 806 q 54 764 78 778 q 28 746 31 750 l 28 897 q 82 924 49 911 q 154 945 115 936 q 236 960 193 954 q 319 965 279 965 m 196 6 l 196 154 l 358 154 l 358 6 l 196 6 z "},"@":{"ha":1049,"x_min":36,"x_max":1013,"o":"m 567 965 q 765 927 679 965 q 906 823 850 889 q 988 668 963 757 q 1004 479 1013 579 q 967 317 996 394 q 926 242 951 275 q 871 190 906 214 q 783 167 836 167 q 714 176 742 167 q 668 201 686 186 q 642 233 650 215 q 629 264 633 250 q 551 190 597 213 q 453 167 506 167 q 353 184 397 167 q 281 239 310 201 q 241 335 253 276 q 236 479 229 394 q 323 719 251 647 q 507 790 394 790 q 598 770 558 790 q 661 706 638 750 l 668 778 l 814 778 l 772 292 q 776 261 772 274 q 793 239 782 249 q 826 229 804 229 q 888 258 863 229 q 930 328 914 288 q 954 410 946 368 q 965 479 963 453 q 953 643 972 563 q 884 787 933 724 q 755 889 835 850 q 563 928 675 928 q 364 889 450 928 q 217 787 278 850 q 122 643 157 724 q 81 479 88 563 q 94 314 74 394 q 163 170 114 233 q 292 69 213 107 q 485 31 372 31 q 637 52 568 31 q 760 111 706 74 l 785 85 q 647 17 722 40 q 482 -7 571 -7 q 284 31 369 -7 q 142 135 199 69 q 61 290 86 201 q 44 479 36 379 q 93 668 53 579 q 201 823 133 757 q 362 927 269 889 q 567 965 454 965 m 642 479 q 642 564 646 531 q 624 617 638 597 q 588 646 611 638 q 532 654 565 654 q 481 646 504 654 q 439 618 457 638 q 408 565 421 599 q 392 479 396 531 q 394 394 388 428 q 415 340 400 360 q 451 313 429 321 q 501 304 474 304 q 553 313 529 304 q 594 340 576 321 q 625 394 613 360 q 642 479 638 428 z "},"A":{"ha":947,"x_min":7,"x_max":939,"o":"m 939 6 l 782 6 l 674 271 l 578 271 q 442 257 510 271 q 328 211 375 243 q 244 139 286 183 q 175 32 203 94 l 164 6 l 7 6 l 399 953 l 547 953 l 939 6 m 619 404 l 472 765 l 294 326 q 349 358 322 343 q 409 383 376 372 q 482 399 442 393 q 576 404 522 404 l 619 404 z "},"B":{"ha":847,"x_min":69,"x_max":799,"o":"m 664 510 q 763 432 726 486 q 799 279 799 378 q 774 152 799 204 q 706 67 749 100 q 609 20 664 35 q 493 6 554 6 l 69 6 l 69 953 l 439 953 q 496 951 463 953 q 566 943 529 950 q 640 922 603 936 q 706 879 676 907 q 753 808 735 851 q 771 703 771 765 q 742 576 771 621 q 664 510 713 532 m 219 506 q 308 557 254 536 q 444 578 361 578 q 569 607 524 578 q 614 703 614 636 q 608 747 614 726 q 588 782 603 767 q 544 806 572 797 q 472 815 517 815 l 219 815 l 219 506 m 493 143 q 547 149 521 143 q 594 172 574 156 q 628 218 615 189 q 640 292 640 247 q 626 365 640 336 q 591 411 613 394 q 542 435 569 428 q 486 442 514 442 l 424 442 q 274 394 328 440 q 219 269 219 349 l 219 142 l 493 143 z "},"C":{"ha":886,"x_min":42,"x_max":843,"o":"m 553 828 q 406 801 472 828 q 294 728 340 775 q 222 617 247 681 q 197 479 197 554 q 225 340 197 404 q 301 229 253 276 q 413 156 349 182 q 553 129 478 129 q 663 142 615 129 q 745 173 710 154 q 804 214 781 192 q 843 254 828 236 l 843 79 q 711 14 790 35 q 543 -7 632 -7 q 338 31 431 -7 q 180 135 246 69 q 78 290 114 201 q 42 479 42 379 q 78 668 42 579 q 180 823 114 757 q 338 927 246 889 q 543 965 431 965 q 735 938 660 965 q 843 879 810 910 l 843 703 q 816 732 838 711 q 758 774 794 753 q 670 812 721 796 q 553 828 619 828 z "},"D":{"ha":949,"x_min":69,"x_max":906,"o":"m 426 953 q 628 917 539 953 q 778 817 717 881 q 873 666 840 753 q 906 479 906 579 q 874 297 906 382 q 785 149 843 213 q 642 47 726 85 q 451 6 558 10 l 69 6 l 69 953 l 426 953 m 426 142 q 569 166 508 142 q 669 235 629 190 q 730 342 710 281 q 750 479 750 404 q 730 616 750 554 q 669 722 710 678 q 569 791 629 767 q 426 815 508 815 l 219 815 l 219 142 l 426 142 z "},"E":{"ha":769,"x_min":69,"x_max":728,"o":"m 219 815 l 219 493 q 288 535 251 517 q 369 566 324 553 q 469 586 414 579 q 592 593 524 593 l 660 593 l 660 458 l 592 458 q 461 447 524 458 q 349 413 399 435 q 266 360 300 392 q 219 286 232 328 l 219 142 l 728 142 l 728 6 l 69 6 l 69 953 l 728 953 l 728 815 l 219 815 z "},"F":{"ha":740,"x_min":69,"x_max":704,"o":"m 219 815 l 219 453 q 288 494 251 476 q 369 526 324 513 q 469 546 414 539 q 592 553 524 553 l 660 553 l 660 418 l 592 418 q 340 373 436 418 q 219 244 243 328 l 219 6 l 69 6 l 69 953 l 704 953 l 704 815 l 219 815 z "},"G":{"ha":967,"x_min":42,"x_max":910,"o":"m 910 542 l 910 129 q 768 32 857 71 q 554 -7 679 -7 q 340 31 435 -7 q 178 135 244 69 q 77 290 113 201 q 42 479 42 379 q 78 668 42 579 q 180 823 114 757 q 340 927 246 889 q 547 965 433 965 q 730 938 653 965 q 843 879 807 911 l 843 703 q 803 743 829 721 q 741 784 778 765 q 658 815 704 803 q 554 828 611 828 q 406 801 472 828 q 294 728 340 775 q 222 617 247 681 q 197 479 197 554 q 222 340 197 404 q 294 229 247 276 q 406 156 340 182 q 553 129 472 129 q 624 134 593 129 q 680 147 656 139 q 724 165 704 156 q 761 185 743 175 l 761 404 l 465 404 l 465 542 l 910 542 z "},"H":{"ha":888,"x_min":69,"x_max":818,"o":"m 818 953 l 818 6 l 668 6 l 668 301 q 639 354 663 333 q 583 388 615 375 q 512 408 550 401 q 440 418 474 414 q 322 436 382 425 q 219 467 263 447 l 219 6 l 69 6 l 69 953 l 219 953 l 219 663 q 253 615 225 633 q 315 584 281 596 q 385 566 350 572 q 440 557 419 560 q 561 535 503 547 q 668 499 619 522 l 668 953 l 818 953 z "},"I":{"ha":289,"x_min":69,"x_max":219,"o":"m 69 6 l 69 953 l 219 953 l 219 6 l 69 6 z "},"J":{"ha":663,"x_min":28,"x_max":606,"o":"m 229 953 l 606 953 l 606 314 q 589 197 606 254 q 533 94 572 139 q 432 21 494 49 q 278 -7 369 -7 q 194 -1 231 -7 q 128 15 157 6 q 75 38 99 25 q 28 65 51 51 l 28 238 q 69 199 44 218 q 123 164 93 179 q 188 139 153 149 q 258 129 222 129 q 364 149 325 129 q 423 197 403 168 q 449 257 443 225 q 456 314 456 289 l 456 815 l 229 815 l 229 953 z "},"K":{"ha":850,"x_min":69,"x_max":822,"o":"m 69 6 l 69 953 l 219 953 l 219 6 l 69 6 m 647 299 q 716 208 688 240 q 765 162 744 176 q 799 144 785 147 q 822 142 813 142 l 822 6 l 792 6 q 664 51 718 6 q 564 167 610 97 q 506 258 542 201 q 428 368 471 314 q 338 462 385 422 q 243 501 290 501 l 631 953 l 821 953 l 467 540 q 522 488 497 518 q 569 424 547 457 q 610 359 590 392 q 647 299 629 326 z "},"L":{"ha":696,"x_min":69,"x_max":668,"o":"m 668 142 l 668 6 l 69 6 l 69 953 l 219 953 l 219 142 l 668 142 z "},"M":{"ha":1088,"x_min":69,"x_max":1017,"o":"m 1017 953 l 1017 6 l 868 6 l 868 786 q 758 708 807 756 q 676 603 710 660 q 624 486 642 547 q 606 367 606 425 l 481 367 q 463 486 481 425 q 411 603 444 547 q 329 708 378 660 q 219 786 281 756 l 219 6 l 69 6 l 69 953 l 204 953 q 322 888 268 926 q 419 806 376 850 q 494 718 463 763 q 543 635 525 674 q 592 718 561 674 q 667 806 624 763 q 765 888 711 850 q 883 953 819 926 l 1017 953 z "},"N":{"ha":913,"x_min":69,"x_max":843,"o":"m 843 953 l 843 6 l 703 6 l 703 74 q 654 267 703 182 q 539 413 606 351 q 432 498 488 458 q 324 578 376 538 q 219 665 268 619 l 219 6 l 69 6 l 69 953 l 213 953 q 235 861 214 901 q 293 785 257 821 q 388 701 335 740 q 497 621 442 661 q 600 539 550 582 q 693 446 650 496 l 693 953 l 843 953 z "},"O":{"ha":1044,"x_min":42,"x_max":1001,"o":"m 522 965 q 724 927 635 965 q 874 823 813 889 q 969 668 936 757 q 1001 479 1001 579 q 969 290 1001 379 q 874 135 936 201 q 724 31 813 69 q 522 -7 635 -7 q 321 31 410 -7 q 169 135 232 69 q 74 290 107 201 q 42 479 42 379 q 74 668 42 579 q 169 823 107 757 q 321 927 232 889 q 522 965 410 965 m 522 129 q 663 156 603 129 q 765 229 724 182 q 826 340 806 276 q 846 479 846 404 q 826 617 846 554 q 765 728 806 681 q 663 801 724 775 q 522 828 603 828 q 381 801 442 828 q 278 728 319 775 q 217 617 238 681 q 197 479 197 554 q 217 340 197 404 q 278 229 238 276 q 381 156 319 182 q 522 129 442 129 z "},"P":{"ha":817,"x_min":69,"x_max":782,"o":"m 425 953 q 549 943 486 953 q 664 902 613 933 q 749 815 715 871 q 782 664 782 758 q 690 449 782 519 q 436 379 597 379 q 363 371 401 379 q 293 342 325 363 q 240 289 261 322 q 219 206 219 256 l 219 6 l 69 6 l 69 953 l 425 953 m 418 517 q 524 527 483 517 q 588 557 565 538 q 617 603 610 576 q 625 664 625 631 q 616 728 625 700 q 583 776 607 757 q 519 806 560 796 q 417 815 479 815 l 219 815 l 219 454 q 299 499 251 482 q 418 517 347 517 z "},"Q":{"ha":1051,"x_min":42,"x_max":1078,"o":"m 847 108 q 943 33 889 65 q 1078 -1 997 1 l 1078 -137 q 965 -122 1015 -136 q 872 -83 914 -107 q 797 -29 831 -60 q 731 35 763 1 q 522 -7 639 -7 q 321 31 410 -7 q 169 135 232 69 q 74 290 107 201 q 42 479 42 379 q 74 668 42 579 q 169 823 107 757 q 321 927 232 889 q 522 965 410 965 q 724 927 635 965 q 874 823 813 889 q 969 668 936 757 q 1001 479 1001 579 q 962 272 1001 367 q 847 108 922 176 m 750 214 q 822 330 799 263 q 846 479 846 397 q 826 617 846 554 q 765 728 806 681 q 663 801 724 775 q 522 828 603 828 q 381 801 442 828 q 278 728 319 775 q 217 617 238 681 q 197 479 197 554 q 244 278 197 364 q 324 325 271 301 q 464 349 376 349 q 553 338 513 349 q 628 310 594 328 q 692 267 663 292 q 750 214 722 242 m 522 129 q 578 133 551 129 q 628 143 604 136 q 556 192 596 172 q 464 211 517 211 q 385 199 415 211 q 342 176 356 186 q 423 142 378 154 q 522 129 468 129 z "},"R":{"ha":850,"x_min":69,"x_max":822,"o":"m 647 299 q 716 208 688 240 q 765 162 744 176 q 799 144 785 147 q 822 142 813 142 l 822 6 l 800 6 q 672 51 726 6 q 572 167 618 97 q 524 239 550 201 q 465 308 499 276 q 389 359 432 339 q 288 379 346 379 l 219 379 l 219 6 l 69 6 l 69 953 l 411 953 q 553 941 488 953 q 666 899 618 929 q 741 814 714 868 q 768 675 768 760 q 751 568 768 613 q 705 493 735 524 q 635 444 675 463 q 546 417 594 426 q 599 365 575 394 q 647 299 624 335 m 351 517 q 450 518 403 517 q 533 533 497 519 q 591 578 569 547 q 613 667 613 608 q 597 746 613 717 q 556 790 582 775 q 494 810 529 806 q 418 815 458 815 l 219 815 l 219 517 l 351 517 z "},"S":{"ha":771,"x_min":42,"x_max":729,"o":"m 396 547 q 557 485 493 515 q 659 421 621 454 q 713 349 697 388 q 729 264 729 311 q 696 138 729 189 q 610 53 663 86 q 492 7 557 21 q 363 -7 426 -7 q 189 17 271 -7 q 60 74 107 42 l 60 229 q 147 181 99 201 q 243 146 188 161 q 363 131 299 131 q 409 133 375 131 q 480 147 443 135 q 544 182 517 158 q 572 247 572 206 q 559 304 572 281 q 519 346 546 328 q 452 380 493 364 q 354 414 411 396 q 202 475 263 443 q 106 542 142 507 q 56 616 71 576 q 42 701 42 656 q 45 738 42 714 q 61 792 49 763 q 97 851 74 821 q 158 908 119 882 q 255 949 197 933 q 393 965 313 965 q 476 960 433 965 q 558 945 518 954 q 631 924 597 936 q 685 897 664 911 l 685 746 q 658 764 682 750 q 596 792 635 778 q 505 817 557 806 q 394 828 453 828 q 294 815 332 828 q 234 783 256 803 q 206 742 213 764 q 199 701 199 721 q 203 668 199 686 q 228 631 208 650 q 288 590 249 611 q 396 547 328 569 z "},"T":{"ha":817,"x_min":28,"x_max":789,"o":"m 789 953 l 789 815 l 483 815 l 483 6 l 333 6 l 333 815 l 28 815 l 28 953 l 789 953 z "},"U":{"ha":860,"x_min":56,"x_max":804,"o":"m 804 953 l 804 417 q 785 238 804 317 q 721 104 765 158 q 605 22 676 50 q 429 -7 533 -7 q 256 22 328 -7 q 140 105 185 50 q 76 239 96 160 q 56 418 56 318 l 56 953 l 206 953 l 206 389 q 215 297 206 343 q 248 213 224 250 q 316 152 272 175 q 429 129 360 129 q 544 152 500 129 q 613 212 588 175 q 646 295 638 249 q 654 389 654 342 l 654 953 l 804 953 z "},"V":{"ha":947,"x_min":7,"x_max":939,"o":"m 939 953 l 549 6 l 399 6 l 7 953 l 164 953 l 474 192 l 782 953 l 939 953 z "},"W":{"ha":1236,"x_min":7,"x_max":1229,"o":"m 1229 953 l 967 6 l 806 6 l 618 715 l 431 6 l 269 6 l 7 953 l 174 953 l 351 222 l 547 953 l 689 953 l 885 222 l 1063 953 l 1229 953 z "},"X":{"ha":888,"x_min":7,"x_max":879,"o":"m 879 6 l 706 6 l 443 388 l 182 6 l 7 6 l 344 489 l 19 953 l 194 953 l 443 601 l 693 953 l 867 953 l 542 489 l 879 6 z "},"Y":{"ha":942,"x_min":7,"x_max":933,"o":"m 933 953 l 544 379 l 544 6 l 396 6 l 396 378 l 7 953 l 183 953 l 471 529 l 757 953 l 933 953 z "},"Z":{"ha":786,"x_min":28,"x_max":757,"o":"m 757 142 l 757 6 l 28 6 l 28 129 l 560 815 l 43 815 l 43 953 l 742 953 l 742 828 l 215 142 l 757 142 z "},"[":{"ha":374,"x_min":69,"x_max":346,"o":"m 219 890 l 219 93 l 346 93 l 346 -19 l 69 -19 l 69 1003 l 346 1003 l 346 890 l 219 890 z "},"\\":{"ha":592,"x_min":7,"x_max":583,"o":"m 583 6 l 433 6 l 7 953 l 157 953 l 583 6 z "},"]":{"ha":374,"x_min":28,"x_max":304,"o":"m 304 1003 l 304 -19 l 28 -19 l 28 93 l 154 93 l 154 890 l 28 890 l 28 1003 l 304 1003 z "},"_":{"ha":983,"x_min":28,"x_max":954,"o":"m 28 -7 l 28 94 l 954 94 l 954 -7 l 28 -7 z "},"a":{"ha":947,"x_min":7,"x_max":939,"o":"m 939 6 l 782 6 l 686 242 l 261 242 l 164 6 l 7 6 l 399 953 l 549 953 l 939 6 m 631 379 l 474 765 l 317 379 l 631 379 z "},"b":{"ha":847,"x_min":69,"x_max":799,"o":"m 656 485 q 760 410 722 464 q 799 254 799 357 q 774 131 799 179 q 708 56 750 83 q 612 17 667 28 q 496 6 557 6 l 69 6 l 69 953 l 471 953 q 587 940 532 953 q 683 899 642 928 q 749 822 725 869 q 774 703 774 774 q 742 563 774 615 q 656 485 711 511 m 219 547 l 471 547 q 525 551 499 547 q 572 569 551 556 q 606 608 593 582 q 618 678 618 633 q 606 751 618 724 q 572 792 593 778 q 525 811 551 807 q 471 815 499 815 l 219 815 l 219 547 m 496 143 q 550 147 524 143 q 597 163 576 150 q 631 201 618 175 q 643 272 643 226 q 631 344 643 317 q 597 385 618 371 q 550 405 576 400 q 496 410 524 410 l 219 410 l 219 142 l 496 143 z "},"c":{"ha":894,"x_min":43,"x_max":844,"o":"m 554 828 q 408 801 474 828 q 295 728 342 775 q 224 617 249 681 q 199 479 199 554 q 226 340 199 404 q 302 229 254 276 q 415 156 350 182 q 554 129 479 129 q 664 142 617 129 q 747 173 711 154 q 806 214 782 192 q 844 254 829 236 l 844 79 q 713 14 792 35 q 544 -7 633 -7 q 340 31 432 -7 q 181 135 247 69 q 79 290 115 201 q 43 479 43 379 q 79 668 43 579 q 181 823 115 757 q 340 927 247 889 q 544 965 432 965 q 736 938 661 965 q 844 879 811 910 l 844 703 q 817 732 839 711 q 759 774 796 753 q 672 812 722 796 q 554 828 621 828 z "},"d":{"ha":949,"x_min":69,"x_max":907,"o":"m 426 953 q 628 917 539 953 q 778 817 717 881 q 874 666 840 753 q 907 479 907 579 q 876 297 907 382 q 786 149 844 213 q 643 47 728 85 q 451 6 558 10 l 69 6 l 69 953 l 426 953 m 426 142 q 567 166 507 142 q 669 235 628 190 q 730 342 710 281 q 750 479 750 404 q 730 616 750 554 q 669 722 710 678 q 567 791 628 767 q 426 815 507 815 l 219 815 l 219 142 l 426 142 z "},"e":{"ha":776,"x_min":69,"x_max":728,"o":"m 219 815 l 219 554 l 678 554 l 678 417 l 219 417 l 219 142 l 728 142 l 728 6 l 69 6 l 69 953 l 728 953 l 728 815 l 219 815 z "},"f":{"ha":740,"x_min":69,"x_max":704,"o":"m 219 815 l 219 517 l 657 517 l 657 379 l 219 379 l 219 6 l 69 6 l 69 953 l 704 953 l 704 815 l 219 815 z "},"g":{"ha":968,"x_min":43,"x_max":911,"o":"m 911 542 l 911 129 q 769 32 858 71 q 556 -7 681 -7 q 341 31 436 -7 q 180 135 246 69 q 78 290 114 201 q 43 479 43 379 q 79 668 43 579 q 181 823 115 757 q 341 927 247 889 q 549 965 435 965 q 731 938 654 965 q 844 879 808 911 l 844 703 q 805 743 831 721 q 742 784 779 765 q 659 815 706 803 q 556 828 613 828 q 408 801 474 828 q 295 728 342 775 q 224 617 249 681 q 199 479 199 554 q 224 340 199 404 q 295 229 249 276 q 408 156 342 182 q 554 129 474 129 q 626 134 594 129 q 681 147 657 139 q 725 165 706 156 q 763 185 744 175 l 763 404 l 467 404 l 467 542 l 911 542 z "},"h":{"ha":888,"x_min":69,"x_max":818,"o":"m 818 953 l 818 6 l 668 6 l 668 417 l 219 417 l 219 6 l 69 6 l 69 953 l 219 953 l 219 554 l 668 554 l 668 953 l 818 953 z "},"i":{"ha":289,"x_min":69,"x_max":219,"o":"m 69 6 l 69 953 l 219 953 l 219 6 l 69 6 z "},"j":{"ha":663,"x_min":28,"x_max":606,"o":"m 456 953 l 606 953 l 606 314 q 589 197 606 254 q 533 94 572 139 q 432 21 494 49 q 278 -7 369 -7 q 194 -1 231 -7 q 128 15 157 6 q 75 38 99 25 q 28 65 51 51 l 28 238 q 69 199 44 218 q 123 164 93 179 q 188 139 153 149 q 258 129 222 129 q 364 149 325 129 q 423 197 403 168 q 449 257 443 225 q 456 314 456 289 l 456 953 z "},"k":{"ha":883,"x_min":69,"x_max":876,"o":"m 69 6 l 69 953 l 219 953 l 219 6 l 69 6 m 876 6 l 690 6 l 243 501 l 661 953 l 851 953 l 436 503 l 876 6 z "},"l":{"ha":696,"x_min":69,"x_max":668,"o":"m 668 142 l 668 6 l 69 6 l 69 953 l 219 953 l 219 142 l 668 142 z "},"m":{"ha":1086,"x_min":69,"x_max":1017,"o":"m 1017 953 l 1017 6 l 868 6 l 868 639 l 592 154 l 494 154 l 219 635 l 219 6 l 69 6 l 69 953 l 204 953 l 543 342 l 882 953 l 1017 953 z "},"n":{"ha":913,"x_min":69,"x_max":843,"o":"m 843 953 l 843 6 l 708 6 l 219 699 l 219 6 l 69 6 l 69 953 l 208 953 l 693 253 l 693 953 l 843 953 z "},"o":{"ha":1044,"x_min":42,"x_max":1001,"o":"m 522 965 q 724 927 635 965 q 874 823 813 889 q 969 668 936 757 q 1001 479 1001 579 q 969 290 1001 379 q 874 135 936 201 q 724 31 813 69 q 522 -7 635 -7 q 321 31 410 -7 q 169 135 232 69 q 74 290 107 201 q 42 479 42 379 q 74 668 42 579 q 169 823 107 757 q 321 927 232 889 q 522 965 410 965 m 522 129 q 663 156 603 129 q 765 229 724 182 q 826 340 806 276 q 846 479 846 404 q 826 617 846 554 q 765 728 806 681 q 663 801 724 775 q 522 828 603 828 q 381 801 442 828 q 278 728 319 775 q 217 617 238 681 q 197 479 197 554 q 217 340 197 404 q 278 229 238 276 q 381 156 319 182 q 522 129 442 129 z "},"p":{"ha":817,"x_min":69,"x_max":782,"o":"m 424 953 q 566 937 500 953 q 680 885 632 921 q 755 792 728 850 q 782 650 782 735 q 753 510 782 567 q 676 419 725 454 q 560 369 626 385 q 419 354 494 354 l 219 354 l 219 6 l 69 6 l 69 953 l 424 953 m 351 492 q 455 494 406 492 q 542 512 504 497 q 602 558 579 526 q 625 650 625 590 q 602 746 625 713 q 542 794 579 779 q 455 813 504 810 q 351 815 406 815 l 219 815 l 219 492 l 351 492 z "},"q":{"ha":1046,"x_min":43,"x_max":1003,"o":"m 715 26 q 886 -4 790 -4 l 953 -4 l 953 -137 l 886 -137 q 706 -112 789 -137 q 550 -32 624 -86 l 517 -7 q 318 33 406 -6 q 169 137 231 71 q 76 291 108 203 q 43 479 43 379 q 76 668 43 579 q 171 823 108 757 q 322 927 233 889 q 524 965 411 965 q 725 927 636 965 q 876 823 814 889 q 970 668 938 757 q 1003 479 1003 579 q 983 332 1003 403 q 927 203 964 261 q 837 99 890 144 q 715 26 783 54 m 524 129 q 665 156 604 129 q 766 229 725 182 q 827 340 807 276 q 847 479 847 404 q 827 617 847 554 q 766 728 807 681 q 665 801 725 775 q 524 828 604 828 q 382 801 443 828 q 280 728 321 775 q 219 617 239 681 q 199 479 199 554 q 219 340 199 404 q 280 229 239 276 q 382 156 321 182 q 524 129 443 129 z "},"r":{"ha":835,"x_min":69,"x_max":814,"o":"m 814 6 l 649 6 l 411 379 l 219 379 l 219 6 l 69 6 l 69 953 l 411 953 q 553 940 488 953 q 666 894 618 926 q 741 806 714 861 q 768 667 768 751 q 753 563 768 608 q 713 485 739 518 q 649 432 686 453 q 568 399 613 411 l 814 6 m 351 517 q 450 518 403 517 q 533 533 497 519 q 591 578 569 547 q 613 667 613 608 q 597 746 613 717 q 556 790 582 775 q 494 810 529 806 q 418 815 458 815 l 219 815 l 219 517 l 351 517 z "},"s":{"ha":771,"x_min":42,"x_max":729,"o":"m 396 547 q 557 485 493 515 q 659 421 621 454 q 713 349 697 388 q 729 264 729 311 q 696 138 729 189 q 610 53 663 86 q 492 7 557 21 q 363 -7 426 -7 q 189 17 271 -7 q 60 74 107 42 l 60 229 q 147 181 99 201 q 243 146 188 161 q 363 131 299 131 q 409 133 375 131 q 480 147 443 135 q 544 182 517 158 q 572 247 572 206 q 559 304 572 281 q 519 346 546 328 q 452 380 493 364 q 354 414 411 396 q 202 475 263 443 q 106 542 142 507 q 56 616 71 576 q 42 701 42 656 q 45 738 42 714 q 61 792 49 763 q 97 851 74 821 q 158 908 119 882 q 255 949 197 933 q 393 965 313 965 q 476 960 433 965 q 558 945 518 954 q 631 924 597 936 q 685 897 664 911 l 685 746 q 658 764 682 750 q 596 792 635 778 q 505 817 557 806 q 394 828 453 828 q 294 815 332 828 q 234 783 256 803 q 206 742 213 764 q 199 701 199 721 q 203 668 199 686 q 228 631 208 650 q 288 590 249 611 q 396 547 328 569 z "},"t":{"ha":817,"x_min":28,"x_max":789,"o":"m 789 953 l 789 817 l 483 817 l 483 6 l 333 6 l 333 817 l 28 817 l 28 953 l 789 953 z "},"u":{"ha":860,"x_min":56,"x_max":804,"o":"m 804 953 l 804 417 q 785 238 804 317 q 721 104 765 158 q 605 22 676 50 q 429 -7 533 -7 q 256 22 328 -7 q 140 105 185 50 q 76 239 96 160 q 56 418 56 318 l 56 953 l 206 953 l 206 389 q 215 297 206 343 q 248 213 224 250 q 316 152 272 175 q 429 129 360 129 q 544 152 500 129 q 613 212 588 175 q 646 295 638 249 q 654 389 654 342 l 654 953 l 804 953 z "},"v":{"ha":949,"x_min":8,"x_max":940,"o":"m 940 953 l 550 6 l 400 6 l 8 953 l 165 953 l 475 192 l 783 953 l 940 953 z "},"w":{"ha":1238,"x_min":8,"x_max":1231,"o":"m 1231 953 l 968 6 l 807 6 l 619 715 l 432 6 l 271 6 l 8 953 l 175 953 l 353 222 l 549 953 l 690 953 l 886 222 l 1064 953 l 1231 953 z "},"x":{"ha":888,"x_min":7,"x_max":879,"o":"m 879 6 l 706 6 l 443 388 l 182 6 l 7 6 l 344 489 l 19 953 l 194 953 l 443 601 l 693 953 l 867 953 l 542 489 l 879 6 z "},"y":{"ha":942,"x_min":7,"x_max":933,"o":"m 933 953 l 544 379 l 544 6 l 396 6 l 396 378 l 7 953 l 183 953 l 471 529 l 757 953 l 933 953 z "},"z":{"ha":786,"x_min":28,"x_max":757,"o":"m 757 142 l 757 6 l 28 6 l 28 129 l 560 815 l 43 815 l 43 953 l 742 953 l 742 828 l 215 142 l 757 142 z "},"{":{"ha":486,"x_min":14,"x_max":457,"o":"m 308 729 q 279 583 308 642 q 179 492 250 524 q 279 401 250 460 q 308 253 308 342 q 310 176 308 210 q 326 117 313 142 q 371 81 340 93 q 457 68 401 68 l 457 -19 q 328 -6 385 -19 q 233 40 272 7 q 172 128 193 72 q 151 267 151 183 q 149 346 151 314 q 135 398 147 378 q 94 428 122 418 q 14 440 67 438 l 14 543 q 94 556 67 546 q 135 585 122 565 q 149 636 147 604 q 151 715 151 668 q 172 856 151 800 q 233 944 193 911 q 328 990 272 976 q 457 1003 385 1003 l 457 915 q 371 903 401 915 q 326 866 340 890 q 310 808 313 842 q 308 729 308 774 z "},"|":{"ha":219,"x_min":56,"x_max":163,"o":"m 56 -69 l 56 1028 l 163 1028 l 163 -69 l 56 -69 z "},"}":{"ha":486,"x_min":28,"x_max":471,"o":"m 333 715 q 335 636 333 668 q 350 585 338 604 q 391 556 363 565 q 471 543 419 546 l 471 440 q 391 428 419 438 q 350 398 363 418 q 335 346 338 378 q 333 267 333 314 q 313 128 333 183 q 253 40 292 72 q 157 -6 214 7 q 28 -19 100 -19 l 28 68 q 115 81 85 68 q 159 117 144 93 q 176 176 174 142 q 178 253 178 210 q 206 401 178 342 q 306 492 235 460 q 206 583 235 524 q 178 729 178 642 q 176 808 178 774 q 159 866 174 842 q 115 903 144 890 q 28 915 85 915 l 28 1003 q 157 990 100 1003 q 253 944 214 976 q 313 856 292 911 q 333 715 333 800 z "}," ":{"ha":417,"x_min":0,"x_max":0,"o":""}}}
